<?xml version="1.0" encoding="UTF-8"?>
<svg width="18px" height="18px" viewBox="0 0 18 18" version="1.1" xmlns="http://www.w3.org/2000/svg" xmlns:xlink="http://www.w3.org/1999/xlink">
    <title>deepchat.svg</title>
    <g id="页面-1" stroke="none" stroke-width="1" fill="none" fill-rule="evenodd">
        <g id="1">
            <rect id="_Transparent_Rectangle_" fill="#4C66AF" x="0" y="0" width="18" height="18"></rect>
            <rect id="矩形" x="1.08" y="1.47" width="15.84" height="15.06"></rect>
            <rect id="矩形" fill="#FFFFFF" x="5.54025" y="11.5699065" width="6.91875" height="2.18691589"></rect>
            <path d="M10.7644444,6.01398914 C10.7644444,6.94594726 11.5199458,7.7014486 12.4519039,7.7014486 C13.383862,7.7014486 14.1393634,6.94594726 14.1393634,6.01398914 C14.1437821,5.56510702 13.967416,5.13332293 13.6499931,4.81589997 C13.3325701,4.498477 12.900786,4.32211091 12.4519039,4.32652967 C11.5199458,4.32652967 10.7644444,5.08203101 10.7644444,6.01398914 Z" id="路径" fill="#FFFFFF" fill-rule="nonzero"></path>
            <path d="M5.54037613,4.32652967 C4.608418,4.32652967 3.85291667,5.08203101 3.85291667,6.01398914 C3.85291667,6.94594726 4.608418,7.7014486 5.54037613,7.7014486 C6.47233426,7.7014486 7.22783559,6.94594726 7.22783559,6.01398914 C7.23225436,5.56510702 7.05588827,5.13332293 6.7384653,4.81589997 C6.42104233,4.498477 5.98925824,4.32211091 5.54037613,4.32652967 L5.54037613,4.32652967 Z" id="路径" fill="#FFFFFF" fill-rule="nonzero"></path>
        </g>
    </g>
</svg>